<?xml version="1.0" encoding="UTF-8"?>
<svg id="Layer_1" data-name="Layer 1" xmlns="http://www.w3.org/2000/svg" viewBox="0 0 132.29 109.34">
  <defs>
    <style>
      .cls-1 {
        fill: #ffdb6e;
        stroke-width: 0px;
      }
    </style>
  </defs>
  <path class="cls-1" d="M13.51,0c.94.6,1.14,1.4,1.11,2.34-.06,2.63-.1,5.26,0,7.89.12,3.41-3.54,5.65-7.35,5.71C3.28,16.01.04,13.36.03,10.14.01,7.51.07,4.88,0,2.25-.02,1.27.3.52,1.32,0h1.3c1.01.53,1.34,1.27,1.32,2.25-.06,2.59.07,5.19-.06,7.78-.08,1.52,1.43,2.61,3.41,2.71,1.86.1,3.41-1.13,3.42-2.66.02-2.56.04-5.12-.01-7.67-.02-.99.26-1.81,1.25-2.41h1.56Z"/>
  <path class="cls-1" d="M56.3,0c1.05.5,1.36,1.24,1.33,2.23-.07,2.59-.08,5.19,0,7.79.07,2.56-1.44,4.27-4.12,5.31-2.78,1.07-5.47.8-7.9-.75-1.74-1.11-2.63-2.56-2.58-4.43.07-2.59.07-5.19,0-7.79-.03-.96.26-1.72,1.1-2.36h1.56c.96.56,1.29,1.32,1.28,2.28-.05,2.59.08,5.19-.05,7.78-.07,1.5,1.5,2.65,3.3,2.67,1.64.01,3.65-.91,3.56-2.69-.13-2.59,0-5.19-.05-7.78-.02-.98.32-1.72,1.3-2.26h1.3Z"/>
  <path class="cls-1" d="M73.68,0c1.44,1.36,1.46,1.68.16,3.22-.99,1.17-1.96,2.34-2.99,3.48-.5.55-.62.96-.05,1.58,1.39,1.5,2.65,3.07,3.96,4.62,1,1.18.99,2.12,0,2.73-1.07.65-2.12.36-3.21-.9-1.08-1.25-2.18-2.48-3.19-3.76-.49-.62-.75-.48-1.17.02-1.17,1.41-2.37,2.8-3.58,4.19-.49.56-1.16.87-2.01.73-.78-.13-1.27-.55-1.53-1.18-.24-.58.07-1.04.45-1.48,1.36-1.6,2.7-3.22,4.11-4.79.58-.64.78-1.11.05-1.82-1.13-1.11-2.07-2.36-3.09-3.55-1.19-1.4-1.11-1.99.42-3.07h1.3c1.99,1.2,2.8,3.19,4.5,4.62,1.57-1.48,2.55-3.3,4.32-4.62h1.56Z"/>
  <path class="cls-1" d="M37.37,0c1.22.88,1.21,1.84.57,3.04-2.04,3.8-3.95,7.65-5.92,11.48-.66,1.28-1.58,1.7-2.76,1.28-1.2-.43-1.48-1.27-.85-2.51,2.01-3.89,4.03-7.78,6-11.68.33-.65.75-1.18,1.4-1.6h1.56Z"/>
  <path class="cls-1" d="M21.81,0c.93.66,1.1,1.5,1.09,2.47-.05,3.81-.02,7.61-.02,11.42,0,1.32-.75,2.09-1.97,2.07-1.14-.03-1.91-.82-1.91-2.05-.01-3.88.03-7.76-.03-11.63-.01-.98.31-1.73,1.29-2.28h1.56Z"/>
  <path class="cls-1" d="M130.99,0c.87.53,1.62,1.12,1.16,2.12-.44.97-1.43,1.09-2.54,1.09-4.1-.02-8.2-.02-12.3,0-1.11,0-2.11-.12-2.54-1.09-.44-1,.29-1.6,1.17-2.12h15.04Z"/>
  <path class="cls-1" d="M130.46,72.26c0,10.75,0,21.49,0,32.24,0,2.41-1.44,4.07-3.96,4.7-.56.14-1.11.13-1.67.13-21.4,0-42.79,0-64.19,0-3.26,0-5.53-1.81-5.61-4.52-.03-1.17.16-2.34.16-3.51.01-20.46.03-40.92-.02-61.38,0-2.58,1.95-4.22,4.06-4.59.71-.12,1.46-.11,2.19-.11,19.62,0,39.25,0,58.87,0,1.3,0,2.6.05,3.89-.04,4.1-.29,6.35,2.21,6.32,5.16-.09,10.64-.03,21.28-.03,31.92ZM111.53,62.46c0-8.54-8.37-15.45-18.74-15.46-10.32-.01-18.83,6.96-18.83,15.44,0,8.55,8.44,15.49,18.86,15.49,10.33,0,18.71-6.93,18.71-15.47ZM92.87,87.76s0,.02,0,.04c-5.57,0-11.14,0-16.72,0-1.32,0-2.58.18-3.72.75-2.38,1.16-3.58,3.51-2.91,5.68.72,2.35,3.16,3.91,6.3,3.94,3.97.04,7.95,0,11.92,0,7.26,0,14.51.02,21.77,0,4.52-.02,7.52-3.1,6.44-6.54-.72-2.29-3.2-3.85-6.23-3.86-5.62-.02-11.23,0-16.85,0Z"/>
  <path class="cls-1" d="M42.89,54.14c0,4.69,0,9.39,0,14.08,0,3.12-2.07,4.81-5.83,4.81-9.81,0-19.61,0-29.42,0-3.49,0-5.77-1.84-5.77-4.72,0-9.43.02-18.85.05-28.28,0-3.06,2.17-4.81,5.91-4.81,9.68,0,19.36.07,29.03-.06,3.44-.05,6.2,1.84,6.08,5-.17,4.66-.04,9.32-.04,13.98ZM27.57,64.42c1.59,0,3.19,0,4.78,0,.69,0,1.4-.03,1.97-.4.68-.44.88-1.06.62-1.72-.34-.87-1.21-1.16-2.23-1.17-3.27-.01-6.55-.02-9.82,0-1.55.01-2.37.59-2.4,1.6-.03,1.06.81,1.67,2.42,1.69,1.55.02,3.1,0,4.65,0ZM27.72,47.01c1.73,0,3.46.02,5.19,0,1.32-.02,2.06-.54,2.12-1.46.07-.95-.69-1.69-1.99-1.71-3.54-.05-7.09-.05-10.63,0-1.26.02-1.95.72-1.92,1.65.03.96.72,1.49,2.04,1.51,1.73.03,3.46,0,5.19,0ZM27.77,52.52c-1.68,0-3.37-.01-5.05,0-1.43.01-2.24.61-2.23,1.61.01.99.82,1.58,2.27,1.59,3.37.01,6.74.02,10.1,0,1.32,0,2.15-.64,2.17-1.56.02-.98-.82-1.62-2.21-1.63-1.68-.01-3.37,0-5.05,0ZM12.17,64.42c1.52.02,2.56-.61,2.61-1.59.05-.98-.97-1.69-2.47-1.71-1.55-.03-2.47.59-2.48,1.65,0,1.04.84,1.63,2.33,1.65ZM12.22,47.01c1.61,0,2.53-.56,2.56-1.57.02-.99-.96-1.63-2.52-1.63-1.59,0-2.44.58-2.43,1.67.02,1.07.72,1.52,2.39,1.53ZM12.23,55.72c1.59,0,2.54-.59,2.55-1.59.01-1.01-.93-1.61-2.52-1.61-1.67,0-2.45.52-2.43,1.63.02,1.02.86,1.57,2.4,1.57Z"/>
  <path class="cls-1" d="M22.34,109.34c-4.97,0-9.94,0-14.9,0-3.19,0-5.57-1.81-5.59-4.41-.04-5.41-.04-10.81.05-16.22.04-2.79,2.34-4.56,5.72-4.57,9.94-.02,19.87-.03,29.81-.03,3.16,0,5.44,1.79,5.47,4.39.06,5.48.06,10.95,0,16.43-.03,2.71-2.23,4.4-5.52,4.41-5.01,0-10.02,0-15.03,0ZM22.59,95.22c-2.85,0-5.7,0-8.54,0-1.43,0-2.3.6-2.3,1.54,0,.95.85,1.58,2.28,1.59,5.61.02,11.22.02,16.83,0,1.38,0,2.28-.7,2.25-1.63-.03-.89-.88-1.49-2.23-1.49-2.76-.01-5.52,0-8.28,0Z"/>
  <path class="cls-1" d="M66.16,23.14c21,0,42,0,63.01,0,.69,0,1.39-.04,2.03.23.73.31,1.09.8,1.05,1.47-.04.67-.46,1.14-1.23,1.36-.57.17-1.18.19-1.79.19-42.05,0-84.1,0-126.14,0-2.09,0-3.05-.54-3.02-1.66.03-1.11.97-1.59,3.09-1.59,21,0,42,0,63.01,0Z"/>
  <path class="cls-1" d="M123.34,9.56c-2.07,0-4.14.01-6.21,0-1.62-.01-2.48-.61-2.47-1.66.01-.98.84-1.61,2.4-1.62,4.27-.03,8.54-.03,12.81,0,1.56.01,2.4.63,2.41,1.62.01,1.04-.86,1.65-2.47,1.66-2.16.02-4.31,0-6.47,0Z"/>
  <path class="cls-1" d="M123.4,15.82c-2.15,0-4.31,0-6.46,0-1.42,0-2.28-.61-2.28-1.56,0-.97.84-1.63,2.22-1.63,4.39-.02,8.79-.02,13.18,0,1.37,0,2.23.67,2.22,1.64,0,.94-.88,1.54-2.29,1.55-2.2.01-4.39,0-6.59,0Z"/>
</svg>