<?xml version="1.0" encoding="UTF-8"?>
<svg id="Layer_1" data-name="Layer 1" xmlns="http://www.w3.org/2000/svg" viewBox="0 0 371.38 372.06">
  <defs>
    <style>
      .cls-1 {
        fill: #ffdb6e;
        stroke-width: 0px;
      }
    </style>
  </defs>
  <path class="cls-1" d="M186.08,0c53.61,0,107.23-.01,160.84,0,12.77,0,21.43,6.35,23.93,17.59.48,2.16.5,4.45.51,6.69.02,89.77.03,179.54.01,269.31,0,15.12-9.37,24.48-24.44,24.49-37.03.01-74.06.05-111.09-.08-3.16-.01-3.86.81-3.81,3.87.2,11.84.15,23.69.02,35.53-.03,2.48.66,3.26,3.11,3.11,3.23-.2,6.48-.12,9.72-.03,3.91.11,6.46,2.48,6.42,5.8-.04,3.32-2.64,5.7-6.53,5.71-17.08.04-34.16.02-51.24.02-22.19,0-44.39-.03-66.58.03-2.98,0-5.5-.58-6.86-3.45-1.75-3.69.72-7.79,4.98-8.05,3.85-.24,7.73-.19,11.59-.04,2.19.09,2.69-.71,2.67-2.77-.09-12.34-.17-24.69.05-37.03.06-3.19-1.68-2.62-3.49-2.62-37.4,0-74.81.02-112.21-.01-11.7,0-20.65-6.91-23.13-17.84-.49-2.16-.51-4.45-.51-6.68C0,203.91,0,114.26,0,24.62,0,8.93,8.85.02,24.49.01,78.36-.01,132.22,0,186.08,0ZM185.69,306.37c52.88,0,105.75,0,158.63,0,13.29,0,15.58-2.28,15.58-15.51,0-88.54,0-177.08,0-265.63,0-9.6-4.09-13.73-13.59-13.73-107,0-214,0-321,0-9.78,0-13.81,4.06-13.81,13.88,0,89.04,0,178.08,0,267.12,0,9.96,3.87,13.86,13.7,13.86,53.5,0,107,0,160.5,0ZM185.57,360.48c10.59,0,21.19-.06,31.78.05,2.31.02,3.29-.4,3.26-3.03-.14-12.21-.1-24.43-.02-36.65.01-1.98-.35-2.83-2.62-2.82-21.56.08-43.13.08-64.69,0-2.01,0-2.5.65-2.49,2.56.07,12.34.1,24.68-.01,37.02-.02,2.37.78,2.92,3.01,2.9,10.59-.1,21.19-.05,31.78-.05Z"/>
  <path class="cls-1" d="M185.76,27.82c49.75,0,99.49,0,149.24,0,6.77,0,8.58,1.82,8.58,8.65,0,75.55,0,151.11,0,226.66,0,6.89-1.67,8.55-8.61,8.55-99.49,0-198.98,0-298.48,0-7.14,0-8.69-1.58-8.69-8.83,0-75.43,0-150.86,0-226.29,0-7.23,1.5-8.73,8.73-8.73,49.75,0,99.49,0,149.24,0ZM185.66,259.91c47.51,0,95.02-.03,142.53.08,3.16,0,3.83-.81,3.83-3.88-.09-70.83-.1-141.66.01-212.49,0-3.55-1.05-4.2-4.34-4.2-94.65.09-189.29.09-283.94-.02-3.72,0-4.4,1.03-4.4,4.53.11,70.58.12,141.16-.02,211.74,0,3.79,1.12,4.33,4.54,4.32,47.26-.12,94.52-.08,141.78-.08Z"/>
  <path class="cls-1" d="M185.19,294.9c-4.24,0-8.48.07-12.72-.02-3.98-.09-6.38-2.34-6.42-5.78-.05-3.48,2.29-5.85,6.29-5.9,8.73-.11,17.46-.11,26.18,0,3.85.05,6.39,2.64,6.32,5.95-.07,3.31-2.65,5.65-6.56,5.73-4.36.09-8.73.02-13.09.02Z"/>
  <path class="cls-1" d="M247.15,165.96c0-20.45.02-40.9-.03-61.35,0-2.55.41-4.91,1.46-7.22,5.71-12.56,11.38-25.13,17.04-37.71,1.16-2.58,2.36-5.06,5.73-5.07,3.43-.01,5.04,2.34,6.22,5.07,5.57,12.89,11.09,25.8,16.65,38.7.9,2.1,1.26,4.25,1.26,6.53-.02,40.9,0,81.8-.02,122.7,0,11.2-6.12,17.27-17.35,17.28-4.74,0-9.48.01-14.21,0-10.32-.03-16.71-6.4-16.73-16.83-.04-20.7-.01-41.4-.01-62.1ZM284.4,154.33c0-14.57-.06-29.14.05-43.71.02-2.47-.42-3.49-3.19-3.4-6.47.21-12.95.16-19.42.02-2.21-.05-3,.43-2.99,2.84.08,29.39.08,58.78,0,88.17,0,2.29.86,2.59,2.81,2.56,6.6-.1,13.2-.17,19.8.03,2.58.08,3.02-.84,3-3.16-.1-14.45-.05-28.89-.05-43.34ZM271.05,211.88c-3.48,0-6.97.07-10.45-.03-1.67-.05-2.44.25-2.39,2.19.14,4.85.08,9.7.04,14.55-.03,3.09,1.53,4.68,4.51,4.72,5.72.09,11.45.09,17.17,0,2.39-.04,3.95-1.05,3.88-3.88-.13-5.1-.12-10.2-.02-15.3.04-1.79-.49-2.36-2.29-2.29-3.48.13-6.97.04-10.45.04ZM281.44,96.19c-3.37-7.5-6.5-14.44-9.87-21.94-3.43,7.72-6.55,14.75-9.75,21.94h19.62Z"/>
  <path class="cls-1" d="M135.21,115.6c0,8.11.14,16.21-.08,24.31-.08,2.91.85,3.46,3.56,3.44,15.96-.13,31.92-.07,47.88-.06,6.78,0,8.53,1.78,8.29,8.39-1.26,33.69-27.92,60.71-62.16,63.02-32.58,2.2-62.58-21.95-68.09-54.8-6.56-39.07,23.86-75.67,63.43-76.34,4.88-.08,7.1,1.99,7.15,6.97.07,8.35.02,16.71.02,25.06ZM123.58,123.99c0-8.23-.14-16.46.07-24.68.08-3.07-.67-3.71-3.7-3.12-30.06,5.88-49.02,33.5-43.61,63.73,4.58,25.58,27.45,44.58,53.44,44.4,25.85-.18,48.76-19.75,53.08-45.04.61-3.55-.48-3.75-3.4-3.72-16.21.12-32.42.08-48.62.04-5.17-.01-7.24-2.15-7.26-7.29-.02-8.1,0-16.21,0-24.31Z"/>
  <path class="cls-1" d="M181.74,132.34c-9.22,0-18.43.01-27.65,0-5.95-.01-7.93-1.94-7.94-7.76-.02-18.68-.02-37.37,0-56.05,0-5.72,2.25-7.82,8.02-7.65,34.3,1.04,62.75,29.75,63.46,64.03.11,5.09-2.02,7.38-7.12,7.41-9.59.06-19.18.02-28.77.02ZM181.32,121.3c7.1,0,14.2-.07,21.3.04,2.09.03,2.76-.4,2.49-2.65-2.63-21.96-23.38-42.75-45.15-45.22-2.03-.23-2.76.03-2.75,2.33.11,14.2.13,28.4-.01,42.6-.03,2.65.95,2.99,3.2,2.95,6.97-.12,13.95-.05,20.93-.05Z"/>
</svg>